# AST/ASF file generated using VICON BodyLanguage
# -----------------------------------------------
:version 1.10
:name VICON
:units
  mass 1.0
  length 0.45
  angle deg
:documentation
   .ast/.asf automatically generated from VICON data using
   VICON BodyBuilder and BodyLanguage model FoxedUp or BRILLIANT.MOD
:root
   order TX TY TZ RX RY RZ
   axis XYZ
   position 0 0 0  
   orientation 0 0 0 
:bonedata
  begin
     id 1 
     name lhipjoint
     direction 0.645422 -0.672597 0.361999 
     length 2.39934 
     axis 0 0 0  XYZ
  end
  begin
     id 2 
     name lfemur
     direction 0.34202 -0.939693 0  
     length 6.58112  
     axis 0 0 20  XYZ
    dof rx ry rz
    limits (-160.0 20.0)
           (-70.0 70.0)
           (-60.0 70.0)
  end
  begin
     id 3 
     name ltibia
     direction 0.34202 -0.939693 0   
     length 7.02673   
     axis 0 0 20   XYZ
    dof rx
    limits (-10.0 170.0)
  end
  begin
     id 4 
     name lfoot
     direction 0.0835106 -0.229444 0.969733   
     length 2.08772   
     axis -90 7.62852e-016 20   XYZ
    dof rx rz
    limits (-45.0 90.0)
           (-70.0 20.0)
  end
  begin
     id 5 
     name ltoes
     direction 1.5358e-011 -4.21925e-011 1   
     length 1.04844   
     axis -90 7.62852e-016 20   XYZ
    dof rx
    limits (-90.0 20.0)
  end
  begin
     id 6 
     name rhipjoint
     direction -0.644959 -0.672941 0.362185   
     length 2.39812  
     axis 0 0 0  XYZ 
  end
  begin
     id 7 
     name rfemur
     direction -0.34202 -0.939693 0   
     length 6.67015   
     axis 0 0 -20   XYZ
    dof rx ry rz
    limits (-160.0 20.0)
           (-70.0 70.0)
           (-70.0 60.0)
  end
  begin
     id 8 
     name rtibia
     direction -0.34202 -0.939693 0   
     length 7.35735   
     axis 0 0 -20   XYZ
    dof rx
    limits (-10.0 170.0)
 end
 begin
     id 9 
     name rfoot
     direction -0.0670769 -0.184292 0.98058   
     length 2.25469  
     axis -90 -7.62852e-016 -20   XYZ
    dof rx rz
    limits (-45.0 90.0)
           (-20.0 70.0)
  end
  begin
     id 10 
     name rtoes
     direction -1.53575e-011 -4.21908e-011 1   
     length 1.13399   
     axis -90 -7.62852e-016 -20   XYZ
    dof rx
    limits (-90.0 20.0)
  end
  begin
     id 11 
     name lowerback
     direction -0.0188328 0.993434 -0.112847   
     length 2.27656   
     axis 0 0 0   XYZ
    dof rx ry rz
    limits (-20.0 45.0)
           (-30.0 30.0)
           (-30.0 30.0)
  end
  begin
     id 12 
     name upperback
     direction 0.00983139 0.998968 -0.04435   
     length 2.28631   
     axis 0 0 0   XYZ
    dof rx ry rz
    limits (-20.0 45.0)
           (-30.0 30.0)
           (-30.0 30.0)
  end
  begin
     id 13 
     name thorax
     direction 0.0177718 0.999807 0.00833073   
     length 2.30999   
     axis 0 0 0   XYZ
    dof rx ry rz
    limits (-20.0 45.0)
           (-30.0 30.0)
           (-30.0 30.0)
  end
  begin
     id 14 
     name lowerneck
     direction -0.0835025 0.993181 0.0813558   
     length 1.39447   
     axis 0 0 0   XYZ
    dof rx ry rz
    limits (-20.0 45.0)
           (-30.0 30.0)
           (-30.0 30.0)
  end
  begin
     id 15 
     name upperneck
     direction 0.210059 0.976535 0.0474817   
     length 1.39882   
     axis 0 0 0   XYZ
    dof rx ry rz
    limits (-20.0 45.0)
           (-30.0 30.0)
           (-30.0 30.0)
  end
  begin
     id 16
     name head
     direction 0.0780891 0.996944 -0.00207154  
     length 1.41828  
     axis 0 0 0   XYZ
    dof rx ry rz
    limits (-20.0 45.0)
           (-30.0 30.0)
           (-30.0 30.0)
  end
  begin
     id 17 
     name lclavicle
     direction 0.982414 0.166355 -0.0847829  
     length 3.57922  
     axis 0 0 0   XYZ
    dof ry rz
    limits (-20.0 10.0)
           (0.0 20.0)
  end
  begin
     id 18 
     name lhumerus
     direction 1 -4.48975e-011 5.47647e-028   
     length 4.76405   
     axis -180 -30 -90   XYZ
    dof rx ry rz
    limits (-60.0 90.0)
           (-90.0 90.0)
           (-90.0 90.0)
  end
  begin
     id 19
     name lradius
     direction 1 -4.48949e-011 -8.32142e-027   
     length 3.13759   
     axis -180 -30 -90   XYZ
    dof rx
    limits (-10.0 170.0)
  end
  begin
     id 20
     name lwrist
     direction 1 -4.48978e-011 -1.32705e-026   
     length 1.56879   
     axis 9.60836e-015 90 90   XYZ
    dof ry
    limits (-180.0 0.0)
 end
  begin
     id 21 
     name lhand
     direction 1 -4.48975e-011 -2.65409e-026   
     length 0.732262   
     axis 1.69354e-014 90 90   XYZ
    dof rx rz
    limits (-90.0 90.0)
           (-45.0 45.0)
  end
  begin
     id 22 
     name lfingers
     direction 1 -4.48923e-011 -5.30819e-026   
     length 0.590368   
     axis 3.38708e-014 90 90   XYZ
    dof rx
    limits (0.0 90.0)
  end
  begin
     id 23
     name lthumb
     direction 0.707107 -6.34914e-011 0.707107   
     length 0.847654   
     axis -90 45 2.85299e-015   XYZ
    dof rx rz
    limits (-45.0 45.0)
           (-45.0 45.0)
  end
  begin
     id 24 
     name rclavicle
     direction -0.963658 0.245183 -0.106063   
     length 3.43472  
     axis 0 0 0   XYZ 
    dof ry rz
    limits (-10.0 20.0)
           (-20.0 0.0)
  end
  begin
     id 25 
     name rhumerus
     direction -1 -4.48963e-011 -1.64784e-027  
     length 5.10161   
     axis -180 30 90   XYZ
    dof rx ry rz
    limits (-90.0 60.0)
           (-90.0 90.0)
           (-90.0 90.0)
  end
  begin
     id 26 
     name rradius
     direction -1 -4.48969e-011 -2.87943e-027   
     length 3.23267   
     axis -180 30 90   XYZ
    dof rx
    limits (-10.0 170.0)
  end
  begin
     id 27 
     name rwrist
     direction -1 -4.48982e-011 -1.32705e-026   
     length 1.61633   
     axis 9.60836e-015 -90 -90   XYZ
    dof ry
    limits (-180.0 0.0)
  end
  begin
     id 28
     name rhand
     direction -1 -4.48963e-011 -2.65409e-026   
     length 0.702   
     axis 1.69354e-014 -90 -90   XYZ
    dof rx rz
    limits (-90.0 90.0)
           (-45.0 45.0)
  end
  begin
     id 29
     name rfingers
     direction -1 -4.48934e-011 -5.30819e-026   
     length 0.565971   
     axis 3.38708e-014 -90 -90   XYZ
    dof rx
    limits (0.0 90.0)
  end
  begin
     id 30
     name rthumb
     direction -0.707107 -6.34908e-011 0.707107   
     length 0.812624   
     axis -90 -45 -2.85299e-015   XYZ
    dof rx rz
    limits (-45.0 45.0)
           (-45.0 45.0)
  end
:hierarchy
  begin
    root lhipjoint rhipjoint lowerback
    lhipjoint lfemur
    lfemur ltibia
    ltibia lfoot
    lfoot ltoes
    rhipjoint rfemur
    rfemur rtibia
    rtibia rfoot
    rfoot rtoes
    lowerback upperback
    upperback thorax
    thorax lowerneck lclavicle rclavicle
    lowerneck upperneck
    upperneck head
    lclavicle lhumerus
    lhumerus lradius
    lradius lwrist
    lwrist lhand lthumb
    lhand lfingers
    rclavicle rhumerus
    rhumerus rradius
    rradius rwrist
    rwrist rhand rthumb
    rhand rfingers
  end

#!OML:ASF \\sashay\E\basketball\basketball\Project 1\Capture day 1\Session 1\Subject.ASF
:FULLY-SPECIFIED
:DEGREES
102
root 5.49002 14.4415 8.1415 -39.9478 78.4551 -62.5679
lowerback 19.466 -4.95399 -3.92899
upperback 8.00191 -6.58929 1.99765
thorax -1.47525 -3.22256 5.62938
lowerneck -7.3942 4.35474 -8.77656
upperneck -15.8684 9.34793 17.5013
head -4.64153 4.83427 6.79913
rclavicle -5.725e-014 2.54444e-014
rhumerus -39.7793 -16.1964 -77.7306
rradius 108.737
rwrist -57.207
rhand -15.3737 16.0901
rfingers 7.12502
rthumb 10.8043 -13.612
lclavicle -5.725e-014 2.54444e-014
lhumerus -10.8806 -1.13609 92.0554
lradius 63.4239
lwrist 16.3684
lhand -25.8858 31.4181
lfingers 7.12502
lthumb 0.656072 61.3968
rfemur -53.9357 -9.44262 19.5349
rtibia 117.961
rfoot -12.3682 -14.643
rtoes -41.9054
lfemur -15.1445 14.9776 -32.9252
ltibia 41.5764
lfoot -18.4199 -3.68376
ltoes -10.8259
103
root 6.05611 14.4772 8.16377 -43.4163 78.5929 -66.1232
lowerback 19.1746 -5.33926 -3.75012
upperback 7.6902 -7.04932 2.775
thorax -1.51971 -3.46738 6.42924
lowerneck -7.26552 4.71899 -8.75515
upperneck -15.3203 9.57543 16.5429
head -4.497 4.96081 6.45259
rclavicle -2.38542e-014 6.36111e-015
rhumerus -38.0044 -15.0081 -77.4861
rradius 108.483
rwrist -55.1898
rhand -15.806 15.6736
rfingers 7.12502
rthumb 10.3873 -14.0498
lclavicle -2.38542e-014 6.36111e-015
lhumerus -11.7833 -3.39754 92.3503
lradius 67.5301
lwrist 14.8261
lhand -29.0461 25.8633
lfingers 7.12502
lthumb -2.39622 55.8296
rfemur -57.3377 -7.30618 20.1928
rtibia 114.863
rfoot -10.6412 -14.8409
rtoes -40.1214
lfemur -11.5834 14.4228 -31.6599
ltibia 38.6365
lfoot -15.2133 -3.95193
ltoes -9.07299
104
root 6.66824 14.5492 8.17268 -43.9835 78.3999 -66.8083
lowerback 18.4729 -5.39148 -3.49726
upperback 7.60012 -7.06566 3.19797
thorax -1.22899 -3.49522 6.67128
lowerneck -7.72218 4.87732 -8.17474
upperneck -14.4056 9.49106 15.6008
head -4.07599 4.94439 6.05704
rclavicle 1.27222e-013 -5.40694e-014
rhumerus -36.1449 -14.4791 -77.6139
rradius 108.374
rwrist -53.0909
rhand -16.3994 15.6278
rfingers 7.12502
rthumb 9.81484 -14.1235
lclavicle 1.27222e-013 -5.40694e-014
lhumerus -12.6815 -6.31555 92.2601
lradius 71.8365
lwrist 13.2324
lhand -31.1147 25.0865
lfingers 7.12502
lthumb -4.39387 55.0209
rfemur -60.9569 -4.57892 19.8947
rtibia 110.887
rfoot -10.7864 -12.9518
rtoes -35.4874
lfemur -7.97107 14.2639 -30.6413
ltibia 35.4725
lfoot -11.3494 -3.79416
ltoes -11.2006
105
root 7.25813 14.5641 8.18682 -43.4787 78.3677 -66.3077
lowerback 17.8835 -5.50919 -3.82948
upperback 7.41597 -7.26618 3.8406
thorax -0.955209 -3.63422 7.52285
lowerneck -8.05056 5.31847 -7.9704
upperneck -13.3972 9.79588 14.5862
head -3.71394 5.12886 5.69312
rclavicle 3.81667e-014 -3.18055e-015
rhumerus -34.1606 -13.1557 -77.3384
rradius 108.235
rwrist -51.1084
rhand -16.4046 15.9888
rfingers 7.12502
rthumb 9.80985 -13.7627
lclavicle 3.81667e-014 -3.18055e-015
lhumerus -14.0131 -8.25145 92.5689
lradius 76.1069
lwrist 11.2997
lhand -32.5759 23.6337
lfingers 7.12502
lthumb -5.8048 53.5342
rfemur -63.0127 -2.50999 19.2211
rtibia 106.73
rfoot -11.7872 -11.9854
rtoes -38.6632
lfemur -4.36742 14.0608 -30.0163
ltibia 32.1595
lfoot -6.50402 -3.81563
ltoes -14.9725
106
root 7.86424 14.5823 8.19351 -42.7613 78.2983 -65.1732
lowerback 17.6734 -5.55156 -4.1466
upperback 7.33422 -7.36049 4.35418
thorax -0.79718 -3.71049 8.25046
lowerneck -8.16934 5.63824 -7.50926
upperneck -12.5615 9.93363 13.4789
head -3.39952 5.20469 5.26576
rclavicle -1.03368e-013 9.54166e-015
rhumerus -32.0273 -12.1458 -77.2678
rradius 107.989
rwrist -49.0409
rhand -16.1189 16.3397
rfingers 7.12502
rthumb 10.0855 -13.3987
lclavicle -1.03368e-013 9.54166e-015
lhumerus -15.4761 -10.2823 92.8305
lradius 80.1324
lwrist 9.4721
lhand -33.3631 22.6259
lfingers 7.12502
lthumb -6.56472 52.5041
rfemur -64.5378 -0.898065 18.863
rtibia 102.235
rfoot -10.4595 -13.061
rtoes -47.2946
lfemur -0.34324 13.6188 -29.4691
ltibia 28.8447
lfoot -1.41693 -3.42298
ltoes -10.4737
107
root 8.47877 14.6043 8.20274 -41.6468 78.0828 -63.7312
lowerback 17.3685 -5.52404 -4.41783
upperback 7.23887 -7.35774 4.84105
thorax -0.629395 -3.73795 8.90299
lowerneck -8.26287 5.86637 -6.70458
upperneck -11.8394 9.91788 12.0715
head -3.07666 5.19108 4.70212
rclavicle -4.77083e-015 4.6118e-014
rhumerus -29.7766 -11.3034 -77.3824
rradius 107.825
rwrist -46.6682
rhand -15.8251 16.1879
rfingers 7.12502
rthumb 10.3689 -13.5365
lclavicle -4.77083e-015 4.6118e-014
lhumerus -17.1609 -12.2666 93.1152
lradius 84.0583
lwrist 7.89185
lhand -34.4156 20.8122
lfingers 7.12502
lthumb -7.58069 50.6564
rfemur -66.0543 0.915436 18.0752
rtibia 97.1216
rfoot -11.3536 -11.6864
rtoes -47.5551
lfemur 3.68788 12.7675 -29.0825
ltibia 25.3488
lfoot 2.77357 -2.12882
ltoes -6.97426
108
root 9.06552 14.5839 8.22335 -41.2404 78.1202 -63.4664
lowerback 16.681 -5.62844 -4.64423
upperback 7.03603 -7.52184 5.40857
thorax -0.337837 -3.8571 9.60446
lowerneck -8.55624 6.09748 -6.14921
upperneck -11.021 9.96616 10.8932
head -2.719 5.22279 4.26846
rclavicle 4.92986e-014 -1.27222e-014
rhumerus -27.3577 -10.4215 -77.6203
rradius 107.794
rwrist -43.945
rhand -15.3585 15.7872
rfingers 7.12502
rthumb 10.819 -13.9141
lclavicle 4.92986e-014 -1.27222e-014
lhumerus -18.9074 -13.9334 93.5002
lradius 87.6782
lwrist 6.43441
lhand -34.3064 23.2527
lfingers 7.12502
lthumb -7.47532 53.1006
rfemur -67.2084 2.08918 17.3385
rtibia 91.6816
rfoot -9.67555 -11.7834
rtoes -50.2777
lfemur 7.42158 11.2506 -29.0513
ltibia 21.5909
lfoot 4.34475 -0.277327
ltoes -6.03072
109
root 9.7067 14.645 8.21463 -41.3938 78.3249 -63.4069
lowerback 16.4386 -5.74276 -4.83923
upperback 6.86347 -7.69155 5.87994
thorax -0.257491 -3.96352 10.2391
lowerneck -8.79354 6.30694 -5.88409
upperneck -10.0927 10.0474 10.1223
head -2.36941 5.27128 4.0118
rclavicle -4.29375e-014 -3.81667e-014
rhumerus -25.0145 -9.62952 -78.0445
rradius 107.89
rwrist -41.0546
rhand -14.8763 15.3185
rfingers 7.12502
rthumb 11.284 -14.358
lclavicle -4.29375e-014 -3.81667e-014
lhumerus -20.713 -15.6153 93.9498
lradius 90.7335
lwrist 5.83267
lhand -35.62 21.9744
lfingers 7.12502
lthumb -8.74313 51.7733
rfemur -67.9383 2.83497 16.4978
rtibia 85.682
rfoot -10.4988 -10.4696
rtoes -50.716
lfemur 11.7062 9.41473 -29.323
ltibia 17.5339
lfoot 5.3161 2.68542
ltoes -8.7988
110
root 10.3473 14.688 8.18628 -39.8631 78.3273 -62.15
lowerback 15.5166 -5.81317 -4.62818
upperback 6.6596 -7.75465 6.18233
thorax 0.036272 -4.01244 10.355
lowerneck -8.97108 6.40266 -5.45891
upperneck -9.41975 9.97262 8.99455
head -2.32766 5.2567 3.98471
rclavicle -8.98507e-014 6.83819e-014
rhumerus -22.5012 -9.09187 -78.8398
rradius 108.019
rwrist -38.0319
rhand -14.3383 15.0513
rfingers 7.12502
rthumb 11.8029 -14.5962
lclavicle -8.98507e-014 6.83819e-014
lhumerus -22.3422 -17.4603 94.2967
lradius 93.0891
lwrist 6.33584
lhand -36.4743 21.3647
lfingers 7.12502
lthumb -9.56741 51.1275
rfemur -68.9722 3.38886 15.7025
rtibia 79.5346
rfoot -10.7034 -8.99682
rtoes -51.0854
lfemur 15.3677 7.50083 -30.2064
ltibia 13.5384
lfoot 6.27893 6.93932
ltoes -12.3747
111
root 10.9762 14.7151 8.16308 -38.3943 78.3305 -60.7729
lowerback 14.7499 -5.84914 -4.34663
upperback 6.56053 -7.76465 6.37692
thorax 0.324988 -4.02839 10.3171
lowerneck -9.41213 6.47307 -4.6323
upperneck -8.85968 9.8707 7.90377
head -1.93312 5.19234 3.47442
rclavicle 1.59028e-015 1.59028e-015
rhumerus -19.8742 -8.5846 -80.0093
rradius 108.205
rwrist -34.8194
rhand -13.932 15.0808
rfingers 7.12502
rthumb 12.1947 -14.5437
lclavicle 1.59028e-015 1.59028e-015
lhumerus -23.9172 -19.1793 94.7299
lradius 94.7093
lwrist 7.27163
lhand -37.5555 20.1477
lfingers 7.12502
lthumb -10.6106 49.8598
rfemur -69.4126 3.73191 15.075
rtibia 73.2065
rfoot -10.5106 -7.35766
rtoes -51.4283
lfemur 19.6837 6.4546 -30.9731
ltibia 8.98363
lfoot 8.59305 10.6241
ltoes -13.5656
112
root 11.5921 14.7323 8.14493 -36.8731 78.5108 -58.9804
lowerback 14.5248 -5.8795 -4.39326
upperback 6.3985 -7.81105 6.57696
thorax 0.319589 -4.05642 10.5527
lowerneck -9.20057 6.59771 -4.16842
upperneck -8.73677 9.8992 6.89921
head -1.84038 5.1848 3.03721
rclavicle 4.29375e-014 -3.49861e-014
rhumerus -17.6192 -7.5708 -81.219
rradius 108.645
rwrist -31.4199
rhand -13.665 14.9627
rfingers 7.12502
rthumb 12.4521 -14.6463
lclavicle 4.29375e-014 -3.49861e-014
lhumerus -25.8832 -20.2992 95.6948
lradius 95.8037
lwrist 8.42018
lhand -37.6846 19.8808
lfingers 7.12502
lthumb -10.735 49.5866
rfemur -69.1303 3.81307 14.5161
rtibia 66.9128
rfoot -10.0583 -5.49403
rtoes -51.3613
lfemur 22.8215 5.42005 -31.9544
ltibia 7.52337
lfoot 9.86974 12.0513
ltoes -14.1364
113
root 12.1936 14.7503 8.12662 -35.0864 79.0494 -57.0556
lowerback 14.3455 -5.94482 -4.75635
upperback 6.1539 -7.94705 6.80543
thorax 0.275103 -4.13686 11.0232
lowerneck -8.50474 6.85801 -3.56012
upperneck -9.1672 10.1085 5.52406
head -1.99257 5.25871 2.42962
rclavicle -1.59028e-014 3.18055e-015
rhumerus -15.4464 -6.28139 -82.4972
rradius 109.212
rwrist -27.8786
rhand -13.2051 14.6785
rfingers 7.12502
rthumb 12.8955 -14.9031
lclavicle -1.59028e-014 3.18055e-015
lhumerus -27.8441 -21.1235 96.8968
lradius 95.6822
lwrist 8.91702
lhand -38.5192 18.9417
lfingers 7.12502
lthumb -11.54 48.604
rfemur -68.6653 3.43171 13.9218
rtibia 60.7439
rfoot -9.16057 -3.50139
rtoes -51.4464
lfemur 23.5227 4.13241 -33.3343
ltibia 10.1583
lfoot 10.5665 12.3483
ltoes -20.3977
114
root 12.7822 14.7641 8.10148 -33.8785 79.9359 -56.0929
lowerback 13.9044 -6.08453 -4.9885
upperback 5.84602 -8.16385 7.03381
thorax 0.303042 -4.25609 11.3945
lowerneck -9.31216 6.67757 -3.46299
upperneck -8.39061 9.79516 5.17355
head -1.55663 5.11187 2.34607
rclavicle -7.15625e-015 -4.69132e-014
rhumerus -13.0622 -4.85308 -83.9698
rradius 109.63
rwrist -23.9979
rhand -13.0002 14.5179
rfingers 7.12502
rthumb 13.093 -15.0511
lclavicle -7.15625e-015 -4.69132e-014
lhumerus -29.5538 -22.0371 98.0566
lradius 95.2042
lwrist 9.95604
lhand -39.4376 18.059
lfingers 7.12502
lthumb -12.4255 47.6697
rfemur -68.2973 2.39623 13.5182
rtibia 54.977
rfoot -8.48304 -1.77351
rtoes -52.3819
lfemur 22.656 3.38575 -34.439
ltibia 14.8896
lfoot 9.297 9.81036
ltoes -24.93
115
root 13.3715 14.7536 8.08218 -32.2793 80.5669 -54.2043
lowerback 13.8325 -6.11127 -5.25978
upperback 5.7384 -8.22961 7.19672
thorax 0.312988 -4.299 11.7387
lowerneck -8.91752 6.92588 -3.10403
upperneck -8.83252 10.0445 4.05409
head -1.69183 5.22472 1.89436
rclavicle 4.77083e-015 -7.95139e-016
rhumerus -10.7258 -2.93708 -85.5659
rradius 109.795
rwrist -19.4255
rhand -13.3495 14.5553
rfingers 7.12502
rthumb 12.7563 -15.035
lclavicle 4.77083e-015 -7.95139e-016
lhumerus -31.2785 -22.6872 99.3816
lradius 93.6601
lwrist 10.1805
lhand -39.6268 19.2074
lfingers 7.12502
lthumb -12.608 48.8069
rfemur -67.3981 1.4462 13.5697
rtibia 49.9491
rfoot -7.64354 0.0451033
rtoes -52.7759
lfemur 21.8477 3.33546 -35.2974
ltibia 20.692
lfoot 7.59241 7.35612
ltoes -23.4175
